# xmcd CD database file
#
# Track frame offsets:
#	150
#	18179
#	30886
#	47822
#	74541
#	85005
#	99674
#	114535
#	128906
#	143631
#	158584
#	170981
#	182781
#	196545
#	217161
#	235195
#	250251
#	266877
#	281480
#	296163
#	304663
#	314971
#
# Disc length: 4375 seconds
#
# Revision: 0
# Processed by: cddbd v1.5.2PL0 Copyright (c) Steve Scherf et al.
# Submitted via: CDex 1.51
#
DISCID=47111516
DTITLE=Various Artist - It's Trad Man CD3
DYEAR=2011
DGENRE=Jazz
TTITLE0=Teddy Bear's Picnic
TTITLE1=Lonesome (Si Tu Vois Ma Mere)
TTITLE2=High Society
TTITLE3=Blame it on the Blues
TTITLE4=You Always Hurt The One You Love
TTITLE5=Forty and Tight
TTITLE6=Brown Skin Mama
TTITLE7=Manhatten
TTITLE8=Moonshine
TTITLE9=Struttin' With Some Barbeque
TTITLE10=All the Girls Go Crazy
TTITLE11=Give Me Your Telephone Number
TTITLE12=Saratoga Swing
TTITLE13=Rioverside Blues
TTITLE14=Creole Love Call
TTITLE15=Snake Rag
TTITLE16=Careless Love
TTITLE17=Sweethearts on Parade
TTITLE18=The World Is Waiting For The Sunrise
TTITLE19=Bourbon Street Parade/When The Saints Go Marching In
TTITLE20=Waltzing Matilda
TTITLE21=Goodnight Sweet Princess
EXTD=YEAR: 2011
EXTT0=
EXTT1=
EXTT2=
EXTT3=
EXTT4=
EXTT5=
EXTT6=
EXTT7=
EXTT8=
EXTT9=
EXTT10=
EXTT11=
EXTT12=
EXTT13=
EXTT14=
EXTT15=
EXTT16=
EXTT17=
EXTT18=
EXTT19=
EXTT20=
EXTT21=
PLAYORDER=
